<svg width="1049" height="816" xmlns="http://www.w3.org/2000/svg" xmlns:xlink="http://www.w3.org/1999/xlink" xml:space="preserve" overflow="hidden"><g transform="translate(-1572 -664)"><g><path d="M-38.0639 97.6792-38.0639 35.5135C-38.0639 6.95007 30.3062-16.3223 114.795-16.3223 199.599-16.3223 267.937 6.95007 267.937 35.5135L267.937 97.6792C230.678 74.689 169.962 65.5565 114.795 65.5565 59.944 65.5565-1.08738 74.689-38.0639 97.6792" fill="#0197F9" fill-rule="evenodd" fill-opacity="1" transform="matrix(1 0 0 -1 1981 1343)"/><path d="M-38.0639 97.101-38.0639 34.9353C-38.0639 6.37193 30.3062-16.9005 114.795-16.9005 199.599-16.9005 267.937 6.37193 267.937 34.9353L267.937 97.101C230.678 74.1423 169.962 64.9783 114.795 64.9783 59.944 64.9783-1.08738 74.1423-38.0639 97.101" fill="#0197F9" fill-rule="evenodd" fill-opacity="1" transform="matrix(1 0 0 -1 1981 1226)"/><path d="M-38.0639 97.3951-38.0639 35.7749C-38.0639 7.46216 30.3062-15.606 114.795-15.606 199.599-15.606 267.937 7.46216 267.937 35.7749L267.937 97.3951C230.678 74.6066 169.962 65.5543 114.795 65.5543 59.944 65.5543-1.08738 74.6066-38.0639 97.3951" fill="#0197F9" fill-rule="evenodd" fill-opacity="1" transform="matrix(1 0 0 -1 1981 1460)"/><path d="M114.952 85.6655C30.4695 85.6655-38.0327 62.6136-38.0327 34.15-38.0327 5.71775 30.4695-17.3342 114.952-17.3342 199.468-17.3342 267.969 5.71775 267.969 34.15 267.969 62.6136 199.468 85.6655 114.952 85.6655" fill="#0197F9" fill-rule="evenodd" fill-opacity="1" transform="matrix(1 0 0 -1 1981 1109)"/><path d="M43.3528 267.214C-1.5615 267.214-38.1473 230.542-38.1473 185.45-38.1473 148.241-13.4108 116.204 22.3259 106.618L22.3259 2.34025C22.3259-9.29515 31.755-18.7865 43.3528-18.7865 54.9834-18.7865 64.4125-9.29515 64.4125 2.34025L64.4125 106.618C100.149 116.204 124.854 148.241 124.854 185.45 124.854 230.542 88.2999 267.214 43.3528 267.214" fill="#03E4C4" fill-rule="evenodd" fill-opacity="1" transform="matrix(1 0 0 -1 2052 935)"/><path d="M115.003 91.4392C122.307 104.001 126.148 118.011 126.148 132.147 126.148 177.137 89.5006 213.752 44.5113 213.752-0.510868 213.752-37.1564 177.137-37.1564 132.147-37.1564 87.1262-0.510868 50.479 44.5113 50.479 58.6472 50.479 72.6255 54.3208 85.1877 61.6251L158.86-12.0459C162.857-16.0438 168.147-18.2489 173.782-18.2489 179.386-18.2489 184.707-16.0438 188.673-12.0459 192.673-8.07944 194.844-2.78993 194.844 2.84609 194.844 8.48074 192.673 13.7702 188.673 17.7367L115.003 91.4392" fill="#03E4C4" fill-rule="evenodd" fill-opacity="1" transform="matrix(1 0 0 -1 1739 1011)"/><path d="M227.251 85.7162 123.337 85.7162C113.786 121.453 81.8607 146.158 44.7818 146.158-0.151733 146.158-36.6962 109.604-36.6962 64.6577-36.6962 19.7431-0.151733-16.8416 44.7818-16.8416 81.8607-16.8416 113.786 7.89369 123.337 43.6306L227.251 43.6306C238.847 43.6306 248.305 53.0599 248.305 64.6577 248.305 76.287 238.847 85.7162 227.251 85.7162" fill="#03E4C4" fill-rule="evenodd" fill-opacity="1" transform="matrix(1 0 0 -1 1610 1256)"/><path d="M163.947 146.158C126.868 146.158 94.9426 121.453 85.3916 85.7162L-18.5237 85.7162C-30.1183 85.7162-39.5764 76.287-39.5764 64.6577-39.5764 53.0599-30.1183 43.6306-18.5237 43.6306L85.3916 43.6306C94.9426 7.89369 126.868-16.8416 163.947-16.8416 208.88-16.8416 245.424 19.7431 245.424 64.6577 245.424 109.604 208.88 146.158 163.947 146.158" fill="#03E4C4" fill-rule="evenodd" fill-opacity="1" transform="matrix(1 0 0 -1 2373 1256)"/><path d="M110.586 50.479C155.415 50.479 191.904 87.1262 191.904 132.147 191.904 177.137 155.415 213.752 110.586 213.752 65.7876 213.752 29.299 177.137 29.299 132.147 29.299 118.011 33.1557 104.001 40.3959 91.4392L-32.9593 17.7367C-41.1418 9.55179-41.1418-3.82948-32.9593-12.0459-29.0098-16.0438-23.7116-18.2489-18.1312-18.2489-12.5207-18.2489-7.25382-16.0438-3.27302-12.0459L70.0821 61.6251C82.5919 54.3208 96.5104 50.479 110.586 50.479" fill="#03E4C4" fill-rule="evenodd" fill-opacity="1" transform="matrix(1 0 0 -1 2297 1011)"/></g></g></svg>