<svg width="1197" height="1036" xmlns="http://www.w3.org/2000/svg" xmlns:xlink="http://www.w3.org/1999/xlink" xml:space="preserve" overflow="hidden"><g transform="translate(-1067 -710)"><g><path d="M1048.33 117.995C1037.06 129.322 1018.72 129.322 1007.42 117.995L977.004 87.5212C970.354 366.84 741.981 592.154 461.615 592.154 259.625 592.154 75.4503 473.273-7.58755 289.27-14.1678 274.681-7.69888 257.463 6.86729 250.87 21.3932 244.312 38.5749 250.764 45.1685 265.353 118.847 428.667 282.315 534.151 461.615 534.151 709.619 534.151 911.732 335.595 919.05 88.8541L889.947 117.995C878.663 129.322 860.309 129.322 849.025 117.995 837.717 106.703 837.717 88.3288 849.025 77.0005L928.227-2.35945C933.87-8.00411 941.279-10.8459 948.688-10.8459 956.099-10.8459 963.508-8.00411 969.164-2.35945L1048.33 77.0005C1059.67 88.3288 1059.67 106.703 1048.33 117.995" fill="#03E4C4" fill-rule="evenodd" fill-opacity="1" transform="matrix(1 0 0 -1 1204 1304)"/><path d="M1040.28 332.608C1025.74 339.251 1008.58 332.783 1001.97 318.162 928.022 154.724 764.432 49.1047 585.204 49.1047 337.127 49.1047 134.963 248.218 127.878 495.518L157.074 466.206C162.714 460.51 170.121 457.665 177.529 457.665 184.936 457.665 192.343 460.51 197.984 466.206 209.289 477.558 209.289 495.941 197.984 507.293L118.806 586.834C107.958 597.728 88.7356 597.728 77.8854 586.834L-1.28187 507.293C-12.5733 495.941-12.5733 477.558-1.27248 466.206 10.0297 454.853 28.3472 454.853 39.648 466.206L69.9636 496.644C76.4641 216.761 304.835-8.9946 585.204-8.9946 787.067-8.9946 971.336 109.981 1054.65 294.12 1061.26 308.743 1054.83 325.965 1040.28 332.608" fill="#03E4C4" fill-rule="evenodd" fill-opacity="1" transform="matrix(1 0 0 -1 1081 1736)"/><path d="M325.05 452.312C394.193 452.312 450.21 396.029 450.21 326.572 450.21 257.114 394.193 200.832 325.05 200.832 255.906 200.832 199.859 257.114 199.859 326.572 199.859 396.029 255.906 452.312 325.05 452.312ZM18.4372 395.117C2.11381 392.762-9.94976 378.709-9.94976 362.197L-9.94976 290.983C-9.94976 274.435 2.11381 260.418 18.4372 258.063L79.519 249.14C87.1647 230.554 89.194 225.566 96.8919 206.981L59.9586 157.268C50.1335 144.023 51.4632 125.543 63.075 113.843L113.223 63.4989C124.863 51.7648 143.266 50.4644 156.469 60.3368L205.941 97.437C224.472 89.7427 229.414 87.6697 247.928 79.9766L256.827 18.5992C259.156 2.26282 273.137-9.92893 289.579-9.92893L360.469-9.92893C376.964-9.92893 390.913 2.26282 393.274 18.5992L402.151 79.9766C420.675 87.6697 425.628 89.7077 444.159 97.437L493.6 60.3368C506.804 50.4644 525.226 51.7648 536.866 63.4989L586.976 113.843C598.605 125.543 599.966 144.023 590.112 157.268L553.208 206.981C560.876 225.566 562.914 230.554 570.581 249.14L631.663 258.063C647.956 260.418 660.05 274.435 660.05 290.983L660.05 362.197C660.05 378.709 647.956 392.762 631.663 395.117L570.581 404.04C562.914 422.624 560.876 427.614 553.208 446.234L590.112 495.877C599.966 509.157 598.605 527.636 586.976 539.335L536.866 589.645C525.226 601.38 506.776 602.714 493.6 592.807L444.009 555.637C425.575 563.296 420.623 565.369 402.173 573.028L393.274 634.546C390.913 650.917 376.964 663.073 360.469 663.073L289.579 663.073C273.137 663.073 259.156 650.917 256.827 634.581L247.928 573.238C229.414 565.509 224.472 563.471 205.941 555.743L156.501 592.807C143.266 602.714 124.863 601.38 113.234 589.645L63.075 539.335C51.4632 527.636 50.1335 509.157 59.9586 495.877L96.8919 446.234C89.194 427.614 87.1647 422.624 79.519 404.04L18.4372 395.117" fill="#0197F9" fill-rule="evenodd" fill-opacity="1" transform="matrix(1 0 0 -1 1341 1555)"/></g></g></svg>