<svg width="890" height="967" xmlns="http://www.w3.org/2000/svg" xmlns:xlink="http://www.w3.org/1999/xlink" xml:space="preserve" overflow="hidden"><g transform="translate(-352 -343)"><g><path d="M215.839 155.865 189.374 110.772C183.139 100.153 168.426 96.0688 156.765 101.746 145.102 107.424 140.616 120.82 146.85 131.399L173.584 176.941C179.147 186.621 194.532 191.154 205.477 186.335 211.219 183.843 215.839 179.146 217.902 172.938 219.74 167.383 219.112 161.46 216.108 156.314ZM206.059 69.9273C218.215 90.6364 230.371 111.304 242.527 131.97 248.537 141.773 262.175 145.899 273.432 141.324 285.857 136.3 291.33 122.535 285.408 111.467 272.85 91.208 258.63 69.2745 248.179 48.1164 241.854 38.5587 228.173 34.8425 217.049 39.5807 216.377 39.9485 215.659 40.3148 214.896 40.6427 203.952 46.6467 200.004 59.6355 206.059 69.9273ZM359.195 74.543C350.179 59.4716 341.387 44.2776 332.552 29.125 331.609 27.5313 330.578 25.9391 329.681 24.3041 326.542 19.1995 321.427 15.6858 315.596 14.0935 302.768 10.5398 289.356 17.0756 285.454 28.7572 283.659 34.1882 284.107 40.2336 287.248 45.5848 296.936 62.0445 308.15 79.4451 316.942 96.1087 323.984 107.096 340.223 110.446 351.706 103.135 361.662 96.763 364.937 84.3045 359.195 74.543ZM433.52 38.5188C424.954 23.9377 416.386 9.35529 407.863-5.18439 401.584-15.8867 386.782-19.9308 375.075-14.2118 363.816-8.73806 359.151 4.00554 364.533 14.5425 373.371 29.3687 382.789 44.6454 391.043 59.7168 397.367 69.9687 411.721 73.8901 423.249 68.4163 435.045 62.8214 439.756 49.2197 433.52 38.5188ZM494.345 28.512C504.123 22.0176 507.218 9.68172 501.342 0.00285092 494.927-10.6582 480.171-14.5383 468.508-8.69815L451.373-0.121164 465.054 23.2022C468.238 28.5933 470.302 34.3122 471.333 40.0297ZM795.86 220.93 683.723 468.611C682.916 470.45 683.005 472.45 683.813 474.207 684.575 475.922 686.056 477.393 688.029 478.127L739.029 497.243C745.938 499.244 748.091 498.427 751.409 492.587L862.427 247.438C864.041 243.885 862.427 237.881 857.269 236.164L806.312 217.009C804.294 216.273 802.096 216.355 800.212 217.09 798.284 217.784 796.713 219.133 795.86 220.93ZM727.412 442.021C737.146 441.817 745.174 448.843 745.399 457.706 745.578 466.529 737.863 473.84 728.174 474.044 718.442 474.247 710.412 467.223 710.188 458.359 710.008 449.537 717.723 442.185 727.412 442.021ZM670.312 412.777 747.417 242.538 697.179 223.013C692.784 227.506 687.581 231.467 681.525 234.572L535.924 310.134C497.216 330.27 457.249 315.527 415.623 300.169 373.01 284.485 328.201 267.983 289.222 302.904 323.851 322.346 357.042 344.893 385.705 371.238 396.515 381.203 408.447 390.68 421.096 398.645 476.582 433.608 517.491 418.372 552.387 405.383 580.242 395.009 614.422 382.756 642.77 399.379ZM378.707 409.876C372.787 405.221 366.642 399.992 360.317 394.192 328.874 365.234 291.689 341.463 252.979 321.286 252.979 321.286 251.498 320.386 251.363 320.305 243.335 315.036 241.541 304.824 247.371 297.513 305.594 224.443 369.064 247.806 429.08 269.943 462.498 282.278 494.614 294.082 518.297 281.829L663.896 206.267C675.648 200.14 680.224 186.538 673.361 175.715 666.274 164.606 653.536 162.564 641.156 167.302L536.508 221.093C527.94 225.505 517.041 222.728 512.196 214.885 507.352 207.084 510.402 197.158 519.015 192.748L626.218 137.648C637.388 131.563 641.56 118.493 635.235 107.996 628.82 97.376 614.063 93.4944 602.4 99.336L483.67 159.623C475.056 164.033 464.157 161.215 459.312 153.374 454.468 145.489 457.563 135.565 466.175 131.154L556.065 85.0814C567.638 79.1586 572.167 65.8434 565.71 55.1011 559.294 44.4814 544.492 40.6013 532.829 46.4429 507.8 58.9812 482.816 71.6436 457.832 84.2646 452.898 89.5331 447.066 93.741 440.383 97.0082 425.985 104.033 409.748 105.095 395.17 101.215 390.46 115.062 380.143 126.334 366.149 133.196 351.706 140.221 335.467 141.324 320.889 137.403 317.524 147.41 310.932 156.518 301.691 163.42 294.111 169.058 285.543 172.816 275.945 174.613 268.678 176.001 261.232 176.124 254.1 175.062 253.652 177.554 253.023 180.004 252.26 182.413 247.91 195.402 238.266 207.002 224.271 214.191 203.1 226.322 174.616 221.87 155.777 207.615 152.099 223.994 146.224 239.392 124.872 246.948 116.26 249.971 107.469 253.769 98.9913 257.2L175.558 426.378 209.38 412.164C239.702 396.888 267.333 402.81 297.34 409.265 322.011 414.573 348.745 420.334 378.707 409.876ZM94.7301 506.719 94.7739 506.719C95.5817 508.517 97.1519 509.864 99.0806 510.599 101.009 511.335 103.207 511.416 105.181 510.681L157.527 490.994C159.5 490.26 160.981 488.83 161.788 487.074 162.596 485.316 162.685 483.315 161.832 481.519L49.6953 233.837C48.0797 230.202 43.236 228.404 39.2878 229.915L-13.1017 249.562C-17.0499 251.073-19.024 255.444-17.4084 259.079ZM118.189 486.95C108.455 487.114 100.425 480.089 100.201 471.267 99.9776 462.403 107.692 455.092 117.427 454.887 127.159 454.724 135.189 461.749 135.369 470.571 135.593 479.435 127.878 486.746 118.189 486.95" fill="#0197F9" fill-rule="evenodd" fill-opacity="1" transform="matrix(1 0 0 -1 375 1290)"/><path d="M-6.75939-18.8045 37.8685-18.8045 37.8685 84.5042C37.8685 93.5186 45.8959 100.819 55.8096 100.819 65.7217 100.819 73.749 93.5186 73.749 84.5042L73.749-18.8045 215.079-18.8045 215.079 84.5042C215.079 93.5186 223.108 100.819 233.02 100.819 242.887 100.819 250.961 93.5186 250.961 84.5042L250.961-18.8045 295.589-18.8045C301.734-18.8045 306.802-14.1955 306.802-8.6087L306.802 115.339C306.802 148.211 274.597 166.89 237.998 175.13 176.506 188.997 114.161 189.935 50.83 175.13 14.2749 166.606-17.9723 148.211-17.9723 115.339L-17.9723-8.6087C-17.9723-14.1955-12.9505-18.8045-6.75939-18.8045M550.618 357.196C590.985 357.196 623.728 336.273 623.728 288.064 623.728 239.815 590.985 200.702 550.618 200.702 510.296 200.702 477.554 239.815 477.554 288.064 477.554 336.273 510.296 357.196 550.618 357.196M399.466-18.8045 444.094-18.8045 444.094 84.5042C444.094 93.5186 452.123 100.819 462.035 100.819 471.947 100.819 479.976 93.5186 479.976 84.5042L479.976-18.8045 621.305-18.8045 621.305 84.5042C621.305 93.5186 629.334 100.819 639.246 100.819 649.158 100.819 657.187 93.5186 657.187 84.5042L657.187-18.8045 701.815-18.8045C708.004-18.8045 713.028-14.1955 713.028-8.6087L713.028 115.339C713.028 148.211 680.824 166.89 644.225 175.13 582.733 188.997 520.388 189.935 457.057 175.13 420.502 166.606 388.253 148.211 388.253 115.339L388.253-8.6087C388.253-14.1955 393.277-18.8045 399.466-18.8045M144.392 357.196C184.759 357.196 217.501 336.273 217.501 288.064 217.501 239.815 184.759 200.702 144.392 200.702 104.025 200.702 71.3274 239.815 71.3274 288.064 71.3274 336.273 104.025 357.196 144.392 357.196" fill="#03E4C4" fill-rule="evenodd" fill-opacity="1" transform="matrix(1 0 0 -1 450 703)"/></g></g></svg>