<svg width="1219" height="1215" xmlns="http://www.w3.org/2000/svg" xmlns:xlink="http://www.w3.org/1999/xlink" xml:space="preserve" overflow="hidden"><g transform="translate(-559 -710)"><g><path d="M808.612 779.997 921.955 755.615C930.41 753.795 939.066 754.755 946.76 758.115 959.821 729.413 970.097 699.47 977.413 668.594L1072.91 631.906 1072.91 476.184 977.413 439.495C965.314 388.683 945.064 340.22 917.728 295.699L959.188 202.236 848.907 92.1464 755.307 133.558C710.835 106.118 662.136 86.0314 611.236 73.9533L574.483-21.3801 418.515-21.3801 381.739 73.9533C330.686 86.0314 282.165 106.27 237.541 133.558L143.914 92.1464 33.6339 202.236 75.2717 295.699C47.7824 340.069 27.6864 388.683 15.4109 439.495L-80.0881 476.184-80.0881 631.906 15.4109 668.594C27.6864 719.558 47.7824 768.021 75.2717 812.542L33.6339 906.004 143.914 1016.09 237.541 974.529C282.165 1001.97 330.686 1022.06 381.586 1034.14L418.515 1129.62 574.483 1129.62 611.236 1034.14C642.064 1026.81 672.008 1016.57 700.761 1003.54 697.394 995.88 696.432 987.214 698.255 978.801L722.68 865.754 682.917 826.034C629.787 862.495 565.523 883.871 496.424 883.871 314.588 883.871 166.113 735.754 166.113 554.134 166.113 372.613 314.588 224.394 496.424 224.394 678.36 224.394 826.735 372.613 826.735 554.134 826.735 623.113 805.321 687.241 768.823 740.277L808.612 779.997" fill="#0197F9" fill-rule="evenodd" fill-opacity="1" transform="matrix(1 0 0 -1 642 1901)"/><path d="M202.319 174.415C208.318 158.413 211.583 141.097 211.583 123.023 211.583 42.1547 145.952-23.2916 64.9556-23.2916-16.0145-23.2916-81.546 42.1547-81.546 123.023-81.546 203.915-16.0145 269.463 64.9556 269.463 83.08 269.463 100.392 266.202 116.413 260.212L22.0796 165.997C-1.63777 142.31-1.63777 103.862 22.0796 80.2003 45.7693 56.5131 84.2681 56.5131 107.986 80.2003ZM325.383 468.888 306.45 556.481 510.813 760.71 529.745 673.017ZM615.651 587.221 703.455 568.311 499.092 364.208 411.289 383.118ZM583.405 669.402C591.302 677.315 604.134 677.315 612.057 669.402 619.953 661.516 619.953 648.698 612.057 640.811L79.3324 108.791C71.4358 100.903 58.6034 100.903 50.7051 108.791 42.8085 116.678 42.8085 129.494 50.7051 137.382L583.405 669.402" fill="#03E4C4" fill-rule="evenodd" fill-opacity="1" transform="matrix(1 0 0 -1 1072 1472)"/></g></g></svg>