<svg width="1645" height="1375" xmlns="http://www.w3.org/2000/svg" xmlns:xlink="http://www.w3.org/1999/xlink" xml:space="preserve" overflow="hidden"><g transform="translate(-1100 -540)"><g><path d="M308.181 209.507C221.966 209.507 152.052 279.804 152.052 366.496 152.052 453.239 221.966 523.536 308.181 523.536 394.452 523.536 464.364 453.239 464.364 366.496 464.364 279.804 394.452 209.507 308.181 209.507ZM645.467 441.981 578.286 451.839C569.879 472.279 567.608 477.779 559.147 498.271L599.751 552.953C610.588 567.582 609.142 587.92 596.345 600.838L541.19 656.246C528.394 669.111 508.117 670.616 493.62 659.721L439.185 618.839C418.854 627.401 413.388 629.631 393.007 638.088L383.254 705.687C380.674 723.689 365.299 737.023 347.188 737.023L269.176 737.023C251.117 737.023 235.741 723.689 233.109 705.687L223.358 638.088C203.029 629.631 197.56 627.401 177.179 618.839L122.797 659.721C108.246 670.616 88.021 669.111 75.2244 656.246L20.0693 600.838C7.27281 587.92 5.82696 567.582 16.6114 552.953L57.2175 498.271C48.8071 477.779 46.5386 472.279 38.1266 451.839L-29.103 441.981C-47.0061 439.387-60.3186 423.927-60.3186 405.769L-60.3186 327.327C-60.3186 309.116-47.0061 293.657-29.103 291.063L38.1266 281.206C46.5386 260.765 48.8071 255.266 57.2175 234.773L16.6114 180.093C5.82696 165.462 7.27281 145.125 20.0693 132.206L75.2244 76.7994C88.021 63.9324 108.246 62.4281 122.797 73.3224L177.179 114.152C197.56 105.697 203.029 103.413 223.358 94.9578L233.109 27.358C235.741 9.35461 251.117-3.97735 269.176-3.97735L347.188-3.97735C365.299-3.97735 380.674 9.35461 383.254 27.358L393.007 94.9578C413.388 103.413 418.854 105.697 439.185 114.152L493.62 73.3224C508.117 62.4281 528.394 63.9324 541.19 76.7994L596.345 132.206C609.142 145.125 610.588 165.514 599.751 180.093L559.043 234.928C567.452 255.369 569.672 260.817 578.082 281.206L645.467 291.063C663.421 293.657 676.683 309.116 676.683 327.327L676.683 405.769C676.683 423.927 663.421 439.387 645.467 441.981" fill="#03E4C4" fill-rule="evenodd" fill-opacity="1" transform="matrix(1 0 0 -1 1614 1281)"/><path d="M295.028 529.978C295.028 520.492 287.437 512.873 277.984 512.873L49.6183 512.873C40.219 512.873 32.574 520.492 32.574 529.978L32.574 562.581C32.574 572.066 40.219 579.736 49.6183 579.736L277.984 579.736C287.437 579.736 295.028 572.066 295.028 562.581ZM295.028 397.389C295.028 387.905 287.437 380.234 277.984 380.234L49.6183 380.234C40.219 380.234 32.574 387.905 32.574 397.389L32.574 429.992C32.574 439.478 40.219 447.149 49.6183 447.149L277.984 447.149C287.437 447.149 295.028 439.478 295.028 429.992ZM295.028 264.802C295.028 255.316 287.437 247.697 277.984 247.697L49.6183 247.697C40.219 247.697 32.574 255.316 32.574 264.802L32.574 297.405C32.574 306.891 40.219 314.562 49.6183 314.562L277.984 314.562C287.437 314.562 295.028 306.891 295.028 297.405ZM163.828 84.5809C137.017 84.5809 115.273 106.35 115.273 133.252 115.273 160.152 137.017 181.973 163.828 181.973 190.585 181.973 212.329 160.152 212.329 133.252 212.329 106.35 190.585 84.5809 163.828 84.5809ZM327.054 691.436 0.548464 691.436C-32.1497 691.436-58.699 664.846-58.699 631.984L-58.699 57.8874C-58.699 25.0255-32.1497-1.56525 0.548464-1.56525L327.054-1.56525C359.802-1.56525 386.301 25.0255 386.301 57.8874L386.301 631.984C386.301 664.846 359.802 691.436 327.054 691.436" fill="#0197F9" fill-rule="evenodd" fill-opacity="1" transform="matrix(1 0 0 -1 1161 1912)"/><path d="M291.655 529.978C291.655 520.492 284.008 512.873 274.609 512.873L46.247 512.873C36.794 512.873 29.201 520.492 29.201 529.978L29.201 562.581C29.201 572.066 36.794 579.736 46.247 579.736L274.609 579.736C284.008 579.736 291.655 572.066 291.655 562.581ZM291.655 397.389C291.655 387.905 284.008 380.234 274.609 380.234L46.247 380.234C36.794 380.234 29.201 387.905 29.201 397.389L29.201 429.992C29.201 439.478 36.794 447.149 46.247 447.149L274.609 447.149C284.008 447.149 291.655 439.478 291.655 429.992ZM291.655 264.802C291.655 255.316 284.008 247.697 274.609 247.697L46.247 247.697C36.794 247.697 29.201 255.316 29.201 264.802L29.201 297.405C29.201 306.891 36.794 314.562 46.247 314.562L274.609 314.562C284.008 314.562 291.655 306.891 291.655 297.405ZM160.403 84.5809C133.592 84.5809 111.898 106.35 111.898 133.252 111.898 160.152 133.592 181.973 160.403 181.973 187.21 181.973 208.958 160.152 208.958 133.252 208.958 106.35 187.21 84.5809 160.403 84.5809ZM323.68 691.436-2.8245 691.436C-35.5226 691.436-62.0736 664.846-62.0736 631.984L-62.0736 57.8874C-62.0736 25.0255-35.5226-1.56525-2.8245-1.56525L323.68-1.56525C356.377-1.56525 382.926 25.0255 382.926 57.8874L382.926 631.984C382.926 664.846 356.377 691.436 323.68 691.436" fill="#0197F9" fill-rule="evenodd" fill-opacity="1" transform="matrix(1 0 0 -1 2359 1912)"/><path d="M19.0923 260.958 133.105 260.958 133.105 265.523C133.105 293.483 143.875 319.058 160.961 339.238L-20.0002 339.238C-41.5908 339.238-59.0388 321.757-59.0388 300.123L-59.0388-3.7614 19.0923-3.7614 19.0923 260.958" fill="#0197F9" fill-rule="evenodd" fill-opacity="1" transform="matrix(1 0 0 -1 1344 1140)"/><path d="M-34.1062 260.958 79.8791 260.958 79.8791-3.7614 157.993-3.7614 157.993 300.123C157.993 321.757 140.497 339.238 118.912 339.238L-62.0066 339.238C-44.8737 319.058-34.1062 293.483-34.1062 265.523L-34.1062 260.958" fill="#0197F9" fill-rule="evenodd" fill-opacity="1" transform="matrix(1 0 0 -1 2401 1140)"/><path d="M-60.3656-1.32599 537.636-1.32599 537.636 76.674-60.3656 76.674-60.3656-1.32599" fill="#0197F9" fill-rule="evenodd" fill-opacity="1" transform="matrix(1 0 0 -1 1683 1668)"/></g></g></svg>